<svg xmlns="http://www.w3.org/2000/svg" viewBox="0 0 224.28 224.28">
    <defs>
        <style>.cls-1{fill:#534d41;}.cls-2{fill:#ecebd5;}</style>
    </defs>
    <title>amenity-museum</title>
	<g id="Layer_2" data-name="Layer 2">
        <g id="Layer_1-2" data-name="Layer 1">
            <circle class="cls-1" cx="112.14" cy="112.14" r="112.14" />
			<path class="cls-2" d="M142.1,179.6c28.7-11.5,37.4-31.3,36.9-45.2c-0.7-20.3-4.3-25.5-7.2-37c-2.5-9.7-6.9-28-7.7-38
			c-0.5-6.2,1-29.3,1-29.3s-21.8,6.2-27.8,7.2c-14.2,2.4-43.5,1.4-57.7-1c-4.8-0.8-18.7-6.2-18.7-6.2s2.3,25.5,1.8,31.7
			c-1.1,13.9-4.5,25.4-7.7,32.7c-3.6,8.2-7.5,25.6-7.2,34.6c1.4,40.4,29.2,50.1,44.7,53.9c0,0,2.5,0.6,3.4,0.8v2.2l-16.1,13.1l3,3.7
			l13-10.6v13.9h4.8V193l13.1,10.7l12.3-11.5v13.9h4.8V193l13.1,10.7l3-3.7l-16.1-13.2v-3.7C135.3,182,139.1,180.8,142.1,179.6z
			 M144.5,65.2c5.5,0,9.9,4.4,9.9,9.9c0,5.5-4.4,9.9-9.9,9.9s-9.9-4.4-9.9-9.9C134.6,69.7,139,65.2,144.5,65.2z M157.4,123.9
			l-11.9,17.4l-12-17.4H157.4z M113.3,65.1l14,16.4l-14,10.1L99.5,81.5L113.3,65.1z M125.4,123.9l-12,17.4l-11.9-17.4H125.4z
			 M82.4,65.2c5.5,0,9.9,4.4,9.9,9.9c0,5.5-4.4,9.9-9.9,9.9c-5.5,0-9.9-4.4-9.9-9.9C72.5,69.7,76.9,65.2,82.4,65.2z M69.5,123.9h23.9
			l-12,17.4L69.5,123.9z M97.4,162.3l-11.9-17.4h23.9L97.4,162.3z M126.1,186l-12.3,11.5l-13.1-10.7v-2.1c9,1.2,17.8,0.7,25.4-0.7V186
			z M130.9,188.3L130.9,188.3L130.9,188.3L130.9,188.3z M129.4,162.3l-11.9-17.4h23.9L129.4,162.3z"/>
	 </g>
	</g>
</svg>
