<svg xmlns="http://www.w3.org/2000/svg" viewBox="0 0 224.28 224.28">
    <defs>
        <style>.cls-1{fill:#534d41;}.cls-2{fill:#ecebd5;}</style>
    </defs>
    <title>amenity-townhall</title>
	<g id="Layer_2" data-name="Layer 2">
        <g id="Layer_1-2" data-name="Layer 1">
			<circle class="cls-1" cx="112.14" cy="112.14" r="112.14" />
		<polygon class="cls-2" points="200.8,98.2 148.7,98.2 112.5,71.9 76.3,98.1 24.2,98.1 47.1,66 89.4,66 89.3,67.8 135.7,67.9 
			135.7,66.3 177.9,66.1 		"/>
		<path class="cls-2" d="M194.9,153l6.1-53.3h-50.2l7.2,5.2l-45.4-0.1l-45.4-0.1l7.2-5.2H24.1l5.2,53.3H24v15.6l177,0.1V153H194.9z
			 M72,147.1H48.8v-28.3H72V147.1z M106.9,156.3H89.6v-35.8h17.3V156.3z M135.4,156.5h-17.3v-35.8h17.3V156.5z M176.2,147.2H153
			v-28.3h23.1V147.2z"/>
		<polygon class="cls-2" points="134.2,42.4 134.2,49.6 123.8,49.6 123.8,42.7 113.2,42.6 102.5,42.5 102.5,49.5 92.2,49.5 92.2,42.3 
			113.7,26.4 		"/>
		<polygon class="cls-2" points="134.2,51.7 134.1,65.8 92.2,65.7 92.2,51.5 104.6,51.5 104.6,44.6 121.8,44.7 121.8,51.7 		"/>
		<polygon class="cls-2" points="151.6,102.8 73.4,102.7 112.5,74.4 		"/>
	</g>
</g>
</svg>
