<svg xmlns="http://www.w3.org/2000/svg" viewBox="0 0 224.28 224.28">
    <defs>
        <style>.cls-1{fill:#534d41;}.cls-2{fill:#ecebd5;}</style>
    </defs>
    <title>amenity-nooks</title>
    <g id="Layer_2" data-name="Layer 2">
        <g id="Layer_1-2" data-name="Layer 1">
            <circle class="cls-1" cx="112.14" cy="112.14" r="112.14" />
			<path class="cls-2" d="M154.2,35.4c-1.9,13.2-5.3,28.8-10.4,35.5C132.4,50.8,108.7,48.5,89,54.5c-15.9,4.8-33,16.8-39.7,58.9
	c-1.6,10.3-3.3,26.6-16.7,47.8c11.2,18.1,72.9,24,100.2,16.2c2-0.6,2.1-3.3,0.2-4.1c-24.2-9.9-23.5-39-8-44.7
	c15.8-5.8,35.8-0.6,33.5,29.9c-0.2,2.2,2.2,3.6,4,2.4c18-12.4,20.4-24.1,22.4-32.8c5.5-24.2-6.9-46.6-34.3-48.4
	c2.8-9.3,17-21.9,27.2-28.9c2.4-1.7,2-5.4-0.8-6.4c-6.7-2.5-13.2-7-17.9-10.8C157.4,31.9,154.5,33,154.2,35.4z"/>
	</g>
</g>
</svg>
