<svg xmlns="http://www.w3.org/2000/svg" viewBox="0 0 224.28 224.28">
    <defs>
        <style>.cls-1{fill:#534d41;}.cls-2{fill:#ecebd5;}</style>
    </defs>
    <title>amenity-museum</title>
	<g id="Layer_2" data-name="Layer 2">
        <g id="Layer_1-2" data-name="Layer 1">
            <circle class="cls-1" cx="112.14" cy="112.14" r="112.14" />
			<path class="cls-2" d="M162.2,57.1c1.3-3.8,0.9-27.7,0.9-27.7s-16.7,2.1-25.8,6.7c-7-4.3-39.7-4.1-45.9,0.3
	c-9.1-4.6-25.4-7.2-25.4-7.2S64.9,54.7,67,57.1c-5.8,34-24,77.9-6.5,100.7c4,5.2,12.7,16.3,36.8,21l-0.3,6l-8.4,5.2
	c-0.9,0.6-1.2,3-0.5,3.9l1.1,1.4c0.5,0.6,1.4,0.8,2.2,0.4l6.3-3.4v9.7c0.2,2.2,2.5,1.8,3.9,1.8c0,0,3.3,0,3.1-2.7l0.1-8.7l9.5,2.8
	l0.4,0.1l0.4-0.1l9.5-2.8l0.1,8.7c0.1,3.9,3.9,2.8,3.9,2.8c1.5,0,3.1,0.2,3.2-2v-9.7l6.3,3.4c0.7,0.4,1.6,0.2,2.2-0.4l1.1-1.4
	c0.7-0.9,0.2-2.6-0.8-3.2l-8.6-5.3l0.1-6.5c24-4.6,32.8-15.8,36.8-21C186.3,135,167.1,91.5,162.2,57.1z M144.4,60.9
	c4.5,0,8.1,3.6,8.1,8.1c0,4.5-3.6,8.1-8.1,8.1s-8.1-3.6-8.1-8.1C136.2,64.6,139.9,60.9,144.4,60.9z M114.6,63.5l8.9,12.3l-8.9,6.7
	l-9.7-6.5L114.6,63.5z M123.2,123.3l-8.8,11.6l-8.8-11.6H123.2z M85.2,60.9c4.5,0,8.1,3.6,8.1,8.1c0,4.5-3.6,8.1-8.1,8.1
	c-4.5,0-8.1-3.6-8.1-8.1C77.1,64.6,80.7,60.9,85.2,60.9z M75.5,123.3h17.5l-8.8,11.6L75.5,123.3z M100.3,153.7l-8.8-11.6H109
	L100.3,153.7z M121.9,185.6l-6.9,2.7l-8.9-2.9v-5c2.4,0.7,12.6,0.5,16-0.3L121.9,185.6z M131.5,153.7l-8.8-11.6h17.5L131.5,153.7z
	 M146.4,135l-8.8-11.6h17.5L146.4,135z"/>
	 </g>
	</g>
</svg>
