<svg xmlns="http://www.w3.org/2000/svg" viewBox="0 0 224.28 224.28">
    <defs>
        <style>.cls-1{fill:#534d41;}.cls-2{fill:#ecebd5;}</style>
    </defs>
    <title>amenity-tailor</title>
    <g id="Layer_2" data-name="Layer 2">
        <g id="Layer_1-2" data-name="Layer 1">
            <circle class="cls-1" cx="112.14" cy="112.14" r="112.14" />
			<path class="cls-2" d="M195.4,71.6l-40.6-21.2c-3.5-1.8-7.8-0.2-9.3,3.4c-5.8,13.7-21.1,16.4-34.8,16.7c-10.7,0.2-23.6-3.3-29.3-17
	c-1.5-3.6-5.8-5.3-9.3-3.4L31.5,71.3c-5.7,3.3-7.6,10.7-4,16.3l15.9,25c2.5,3.9,7.6,5.2,11.7,3l9.6-5.3l-7.8,41.1
	c-0.9,4.5,0.6,9.3,4.1,12.4c12.2,10.9,40.1,12.9,51.7,12.9c11.9,0,41.1-1.7,53.3-12.7c3.4-3.1,5-7.8,4.1-12.4l-7.8-41.1l9.6,5.3
	c4.1,2.2,9.2,0.9,11.7-3l15.9-25C203,82.3,201.2,74.9,195.4,71.6z M114.3,82.3c5.1,0,9.3,4.2,9.3,9.3s-4.2,9.3-9.3,9.3
	c-5.1,0-9.3-4.2-9.3-9.3S109.2,82.3,114.3,82.3z M114.3,130.7c-5.1,0-9.3-4.2-9.3-9.3c0-5.1,4.2-9.3,9.3-9.3c5.1,0,9.3,4.2,9.3,9.3
	C123.6,126.6,119.5,130.7,114.3,130.7z"/>
	</g>
</g>
</svg>
