<svg xmlns="http://www.w3.org/2000/svg" viewBox="0 0 224.28 224.28">
	<defs>
		<style>.cls-1{fill:#534d41;}.cls-2{fill:#ecebd5;}</style>
	</defs>
	<title>amenity-campsite</title>
	<g id="Layer_2" data-name="Layer 2">
	<g id="Layer_1-2" data-name="Layer 1">
		<circle class="cls-1" cx="112.14" cy="112.14" r="112.14" />
		<path class="cls-2" 
		d="M182.2,173c-2.8-0.7-5.6-1-8.5-0.9c-19.8-0.1-39.6,0-59.4,0c-20.8,0-41-0.2-62,0.2H51c-5.2,0.2-9.3,1.9-9.4,4
			l0,0c0,0,0,0.1,0,0.1c0,2.1,4.2,3.9,9.6,4.1c0.3,0,0.6,0,1,0l0,0c0.5,0,1,0,1.5,0c40.1,0,79.9,0,120-0.1c2.9,0.1,5.7-0.2,8.5-0.8
			c1.2-0.3,2.9-2.1,2.9-3.2C184.7,174.9,183.7,173.6,182.2,173z"/>
		<path class="cls-2" 
		d="M188.3,159.2h-55.8v-52.9H95.1V159H37.2c1.4-11.7,2-23.1,4.3-34.2c4.4-20.8,12.6-40,27.7-55.6
			c28.5-29.3,65.3-28.3,91.4,3c20.1,24.1,28.1,53,28.3,84.1C188.9,157.3,188.6,158.3,188.3,159.2z"/>
	</g>
</g>
</svg>
